<svg xmlns="http://www.w3.org/2000/svg" version="1.1" xmlns:xlink="http://www.w3.org/1999/xlink" xmlns:svgjs="http://svgjs.dev/svgjs" viewBox="0 0 800 800" width="800" height="800"><g stroke-width="3.5" stroke="hsl(261, 60%, 38%)" fill="none"><rect width="100" height="66.66666666666667" x="0" y="0"></rect><rect width="100" height="66.66666666666667" x="100" y="0"></rect><rect width="100" height="66.66666666666667" x="200" y="0"></rect><rect width="100" height="66.66666666666667" x="300" y="0"></rect><rect width="100" height="66.66666666666667" x="400" y="0"></rect><rect width="100" height="66.66666666666667" x="500" y="0"></rect><rect width="100" height="66.66666666666667" x="600" y="0"></rect><rect width="100" height="66.66666666666667" x="700" y="0"></rect><rect width="100" height="66.66666666666667" x="800" y="0"></rect><rect width="100" height="66.66666666666667" x="0" y="66.66666666666667"></rect><rect width="100" height="66.66666666666667" x="100" y="66.66666666666667"></rect><rect width="100" height="66.66666666666667" x="200" y="66.66666666666667"></rect><rect width="100" height="66.66666666666667" x="300" y="66.66666666666667"></rect><rect width="100" height="66.66666666666667" x="400" y="66.66666666666667"></rect><rect width="100" height="66.66666666666667" x="500" y="66.66666666666667"></rect><rect width="100" height="66.66666666666667" x="600" y="66.66666666666667"></rect><rect width="100" height="66.66666666666667" x="700" y="66.66666666666667"></rect><rect width="100" height="66.66666666666667" x="800" y="66.66666666666667"></rect><rect width="100" height="66.66666666666667" x="0" y="133.33333333333334"></rect><rect width="100" height="66.66666666666667" x="100" y="133.33333333333334"></rect><rect width="100" height="66.66666666666667" x="200" y="133.33333333333334"></rect><rect width="100" height="66.66666666666667" x="300" y="133.33333333333334"></rect><rect width="100" height="66.66666666666667" x="400" y="133.33333333333334"></rect><rect width="100" height="66.66666666666667" x="500" y="133.33333333333334"></rect><rect width="100" height="66.66666666666667" x="600" y="133.33333333333334"></rect><rect width="100" height="66.66666666666667" x="700" y="133.33333333333334"></rect><rect width="100" height="66.66666666666667" x="800" y="133.33333333333334"></rect><rect width="100" height="66.66666666666667" x="0" y="200"></rect><rect width="100" height="66.66666666666667" x="100" y="200"></rect><rect width="100" height="66.66666666666667" x="200" y="200"></rect><rect width="100" height="66.66666666666667" x="300" y="200"></rect><rect width="100" height="66.66666666666667" x="400" y="200"></rect><rect width="100" height="66.66666666666667" x="500" y="200"></rect><rect width="100" height="66.66666666666667" x="600" y="200"></rect><rect width="100" height="66.66666666666667" x="700" y="200"></rect><rect width="100" height="66.66666666666667" x="800" y="200"></rect><rect width="100" height="66.66666666666667" x="0" y="266.6666666666667"></rect><rect width="100" height="66.66666666666667" x="100" y="266.6666666666667"></rect><rect width="100" height="66.66666666666667" x="200" y="266.6666666666667"></rect><rect width="100" height="66.66666666666667" x="300" y="266.6666666666667"></rect><rect width="100" height="66.66666666666667" x="400" y="266.6666666666667"></rect><rect width="100" height="66.66666666666667" x="500" y="266.6666666666667"></rect><rect width="100" height="66.66666666666667" x="600" y="266.6666666666667"></rect><rect width="100" height="66.66666666666667" x="700" y="266.6666666666667"></rect><rect width="100" height="66.66666666666667" x="800" y="266.6666666666667"></rect><rect width="100" height="66.66666666666667" x="0" y="333.33333333333337"></rect><rect width="100" height="66.66666666666667" x="100" y="333.33333333333337"></rect><rect width="100" height="66.66666666666667" x="200" y="333.33333333333337"></rect><rect width="100" height="66.66666666666667" x="300" y="333.33333333333337"></rect><rect width="100" height="66.66666666666667" x="400" y="333.33333333333337"></rect><rect width="100" height="66.66666666666667" x="500" y="333.33333333333337"></rect><rect width="100" height="66.66666666666667" x="600" y="333.33333333333337"></rect><rect width="100" height="66.66666666666667" x="700" y="333.33333333333337"></rect><rect width="100" height="66.66666666666667" x="800" y="333.33333333333337"></rect><rect width="100" height="66.66666666666667" x="0" y="400.00000000000006"></rect><rect width="100" height="66.66666666666667" x="100" y="400.00000000000006"></rect><rect width="100" height="66.66666666666667" x="200" y="400.00000000000006"></rect><rect width="100" height="66.66666666666667" x="300" y="400.00000000000006"></rect><rect width="100" height="66.66666666666667" x="400" y="400.00000000000006"></rect><rect width="100" height="66.66666666666667" x="500" y="400.00000000000006"></rect><rect width="100" height="66.66666666666667" x="600" y="400.00000000000006"></rect><rect width="100" height="66.66666666666667" x="700" y="400.00000000000006"></rect><rect width="100" height="66.66666666666667" x="800" y="400.00000000000006"></rect><rect width="100" height="66.66666666666667" x="0" y="466.66666666666674"></rect><rect width="100" height="66.66666666666667" x="100" y="466.66666666666674"></rect><rect width="100" height="66.66666666666667" x="200" y="466.66666666666674"></rect><rect width="100" height="66.66666666666667" x="300" y="466.66666666666674"></rect><rect width="100" height="66.66666666666667" x="400" y="466.66666666666674"></rect><rect width="100" height="66.66666666666667" x="500" y="466.66666666666674"></rect><rect width="100" height="66.66666666666667" x="600" y="466.66666666666674"></rect><rect width="100" height="66.66666666666667" x="700" y="466.66666666666674"></rect><rect width="100" height="66.66666666666667" x="800" y="466.66666666666674"></rect><rect width="100" height="66.66666666666667" x="0" y="533.3333333333334"></rect><rect width="100" height="66.66666666666667" x="100" y="533.3333333333334"></rect><rect width="100" height="66.66666666666667" x="200" y="533.3333333333334"></rect><rect width="100" height="66.66666666666667" x="300" y="533.3333333333334"></rect><rect width="100" height="66.66666666666667" x="400" y="533.3333333333334"></rect><rect width="100" height="66.66666666666667" x="500" y="533.3333333333334"></rect><rect width="100" height="66.66666666666667" x="600" y="533.3333333333334"></rect><rect width="100" height="66.66666666666667" x="700" y="533.3333333333334"></rect><rect width="100" height="66.66666666666667" x="800" y="533.3333333333334"></rect><rect width="100" height="66.66666666666667" x="0" y="600"></rect><rect width="100" height="66.66666666666667" x="100" y="600"></rect><rect width="100" height="66.66666666666667" x="200" y="600"></rect><rect width="100" height="66.66666666666667" x="300" y="600"></rect><rect width="100" height="66.66666666666667" x="400" y="600"></rect><rect width="100" height="66.66666666666667" x="500" y="600"></rect><rect width="100" height="66.66666666666667" x="600" y="600"></rect><rect width="100" height="66.66666666666667" x="700" y="600"></rect><rect width="100" height="66.66666666666667" x="800" y="600"></rect><rect width="100" height="66.66666666666667" x="0" y="666.6666666666666"></rect><rect width="100" height="66.66666666666667" x="100" y="666.6666666666666"></rect><rect width="100" height="66.66666666666667" x="200" y="666.6666666666666"></rect><rect width="100" height="66.66666666666667" x="300" y="666.6666666666666"></rect><rect width="100" height="66.66666666666667" x="400" y="666.6666666666666"></rect><rect width="100" height="66.66666666666667" x="500" y="666.6666666666666"></rect><rect width="100" height="66.66666666666667" x="600" y="666.6666666666666"></rect><rect width="100" height="66.66666666666667" x="700" y="666.6666666666666"></rect><rect width="100" height="66.66666666666667" x="800" y="666.6666666666666"></rect><rect width="100" height="66.66666666666667" x="0" y="733.3333333333333"></rect><rect width="100" height="66.66666666666667" x="100" y="733.3333333333333"></rect><rect width="100" height="66.66666666666667" x="200" y="733.3333333333333"></rect><rect width="100" height="66.66666666666667" x="300" y="733.3333333333333"></rect><rect width="100" height="66.66666666666667" x="400" y="733.3333333333333"></rect><rect width="100" height="66.66666666666667" x="500" y="733.3333333333333"></rect><rect width="100" height="66.66666666666667" x="600" y="733.3333333333333"></rect><rect width="100" height="66.66666666666667" x="700" y="733.3333333333333"></rect><rect width="100" height="66.66666666666667" x="800" y="733.3333333333333"></rect><rect width="100" height="66.66666666666667" x="0" y="799.9999999999999"></rect><rect width="100" height="66.66666666666667" x="100" y="799.9999999999999"></rect><rect width="100" height="66.66666666666667" x="200" y="799.9999999999999"></rect><rect width="100" height="66.66666666666667" x="300" y="799.9999999999999"></rect><rect width="100" height="66.66666666666667" x="400" y="799.9999999999999"></rect><rect width="100" height="66.66666666666667" x="500" y="799.9999999999999"></rect><rect width="100" height="66.66666666666667" x="600" y="799.9999999999999"></rect><rect width="100" height="66.66666666666667" x="700" y="799.9999999999999"></rect><rect width="100" height="66.66666666666667" x="800" y="799.9999999999999"></rect></g></svg>